<svg xmlns="http://www.w3.org/2000/svg" width="24" height="24" viewBox="0 0 24 24">
	<path d="M18.23,12.63A0.56,0.56,0,0,1,17.79,12h0a0.56,0.56,0,0,1,.44-0.63h4.32A0.56,0.56,0,0,1,23,12h0a0.56,0.56,0,0,1-.44.63H18.23Zm-16.79,0A0.56,0.56,0,0,1,1,12H1a0.56,0.56,0,0,1,.44-0.63H5.76a0.56,0.56,0,0,1,.44.63h0a0.56,0.56,0,0,1-.44.63H1.44Zm9.93,5.6A0.56,0.56,0,0,1,12,17.79h0a0.56,0.56,0,0,1,.63.44v4.32A0.56,0.56,0,0,1,12,23h0a0.56,0.56,0,0,1-.63-0.44V18.24Zm0-16.79A0.56,0.56,0,0,1,12,1h0a0.56,0.56,0,0,1,.63.44V5.77a0.56,0.56,0,0,1-.63.44h0a0.56,0.56,0,0,1-.63-0.44V1.44ZM17,15.76A0.56,0.56,0,0,1,17,15h0a0.56,0.56,0,0,1,.71-0.31l3.7,2.23a0.56,0.56,0,0,1,.06.77h0a0.56,0.56,0,0,1-.71.31ZM2.63,7.09a0.56,0.56,0,0,1-.05-0.77h0A0.56,0.56,0,0,1,3.28,6L7,8.24A0.56,0.56,0,0,1,7,9H7a0.56,0.56,0,0,1-.71.31L2.63,7.09h0ZM8.24,17A0.56,0.56,0,0,1,9,17H9a0.56,0.56,0,0,1,.31.71l-2.23,3.7a0.56,0.56,0,0,1-.77.05h0A0.56,0.56,0,0,1,6,20.72L8.24,17h0ZM16.9,2.63a0.56,0.56,0,0,1,.77-0.05h0a0.56,0.56,0,0,1,.31.71L15.76,7A0.56,0.56,0,0,1,15,7h0a0.56,0.56,0,0,1-.31-0.7l2.23-3.7h0ZM7,15.76A0.56,0.56,0,0,0,7,15H7a0.56,0.56,0,0,0-.71-0.31l-3.7,2.23a0.56,0.56,0,0,0-.05.77h0a0.56,0.56,0,0,0,.71.31ZM21.37,7.09a0.56,0.56,0,0,0,.05-0.77h0A0.56,0.56,0,0,0,20.71,6L17,8.24A0.56,0.56,0,0,0,17,9h0a0.57,0.57,0,0,0,.71.31l3.7-2.23h0ZM15.76,17A0.56,0.56,0,0,0,15,17h0a0.56,0.56,0,0,0-.31.71l2.23,3.7a0.57,0.57,0,0,0,.77.05h0A0.56,0.56,0,0,0,18,20.72L15.76,17h0ZM7.09,2.63a0.56,0.56,0,0,0-.77-0.05h0A0.56,0.56,0,0,0,6,3.28L8.24,7A0.57,0.57,0,0,0,9,7H9a0.56,0.56,0,0,0,.31-0.7L7.1,2.63h0Z"/>
</svg>